<?xml version="1.0" encoding="utf-8"?>
<!-- Generator: Adobe Illustrator 18.1.1, SVG Export Plug-In . SVG Version: 6.00 Build 0)  -->
<svg version="1.1" id="Capa_1" xmlns="http://www.w3.org/2000/svg" xmlns:xlink="http://www.w3.org/1999/xlink" x="0px" y="0px"
	 viewBox="-212.9 -71.2 1000 1000" enable-background="new -212.9 -71.2 1000 1000" xml:space="preserve">
<linearGradient id="SVGID_1_" gradientUnits="userSpaceOnUse" x1="-14.3715" y1="71.1857" x2="598.9791" y2="802.1484">
	<stop  offset="0" style="stop-color:#B0CF34"/>
	<stop  offset="1" style="stop-color:#62C2E8"/>
</linearGradient>
<circle fill="none" stroke="url(#SVGID_1_)" stroke-width="36" stroke-miterlimit="10" cx="292.3" cy="436.7" r="459.1"/>
<g>
	<linearGradient id="SVGID_2_" gradientUnits="userSpaceOnUse" x1="191.3711" y1="316.3809" x2="393.2342" y2="556.952">
		<stop  offset="0" style="stop-color:#B0CF34"/>
		<stop  offset="1" style="stop-color:#62C2E8"/>
	</linearGradient>
	<path fill="url(#SVGID_2_)" d="M292.3,279.6c-86.6,0-157.1,70.5-157.1,157.1s70.5,157.1,157.1,157.1c86.6,0,157.1-70.5,157.1-157.1
		S378.9,279.6,292.3,279.6z M292.3,561C223.7,561,168,505.2,168,436.7c0-68.6,55.8-124.3,124.3-124.3c68.6,0,124.3,55.8,124.3,124.3
		C416.6,505.2,360.9,561,292.3,561z"/>
	<linearGradient id="SVGID_3_" gradientUnits="userSpaceOnUse" x1="260.7961" y1="152.0996" x2="323.807" y2="227.1932">
		<stop  offset="0" style="stop-color:#B0CF34"/>
		<stop  offset="1" style="stop-color:#62C2E8"/>
	</linearGradient>
	<path fill="url(#SVGID_3_)" d="M292.3,248.6c9,0,16.4-7.3,16.4-16.4V147c0-9-7.3-16.4-16.4-16.4s-16.4,7.3-16.4,16.4v85.2
		C275.9,241.3,283.3,248.6,292.3,248.6z"/>
	<linearGradient id="SVGID_4_" gradientUnits="userSpaceOnUse" x1="260.796" y1="646.1411" x2="323.8073" y2="721.2351">
		<stop  offset="0" style="stop-color:#B0CF34"/>
		<stop  offset="1" style="stop-color:#62C2E8"/>
	</linearGradient>
	<path fill="url(#SVGID_4_)" d="M292.3,624.7c-9,0-16.4,7.3-16.4,16.4v85.2c0,9,7.3,16.4,16.4,16.4s16.4-7.3,16.4-16.4v-85.2
		C308.7,632,301.3,624.7,292.3,624.7z"/>
	<linearGradient id="SVGID_5_" gradientUnits="userSpaceOnUse" x1="79.8246" y1="216.9404" x2="155.4396" y2="307.0549">
		<stop  offset="0" style="stop-color:#B0CF34"/>
		<stop  offset="1" style="stop-color:#62C2E8"/>
	</linearGradient>
	<path fill="url(#SVGID_5_)" d="M136.2,303.7c3.2,3.2,7.4,4.8,11.6,4.8c4.2,0,8.4-1.6,11.6-4.8c6.4-6.4,6.4-16.8,0-23.2l-60.2-60.2
		c-6.4-6.4-16.8-6.4-23.2,0c-6.4,6.4-6.4,16.8,0,23.2L136.2,303.7z"/>
	<linearGradient id="SVGID_6_" gradientUnits="userSpaceOnUse" x1="429.1637" y1="566.2812" x2="504.7796" y2="656.3968">
		<stop  offset="0" style="stop-color:#B0CF34"/>
		<stop  offset="1" style="stop-color:#62C2E8"/>
	</linearGradient>
	<path fill="url(#SVGID_6_)" d="M448.4,569.6c-6.4-6.4-16.8-6.4-23.2,0c-6.4,6.4-6.4,16.8,0,23.2l60.2,60.2
		c3.2,3.2,7.4,4.8,11.6,4.8c4.2,0,8.4-1.6,11.6-4.8c6.4-6.4,6.4-16.8,0-23.2L448.4,569.6z"/>
	<linearGradient id="SVGID_7_" gradientUnits="userSpaceOnUse" x1="17.1523" y1="403.1414" x2="73.4131" y2="470.1905">
		<stop  offset="0" style="stop-color:#B0CF34"/>
		<stop  offset="1" style="stop-color:#62C2E8"/>
	</linearGradient>
	<path fill="url(#SVGID_7_)" d="M104.3,436.7c0-9-7.3-16.4-16.4-16.4H2.7c-9,0-16.4,7.3-16.4,16.4S-6.4,453,2.7,453h85.2
		C96.9,453,104.3,445.7,104.3,436.7z"/>
	<linearGradient id="SVGID_8_" gradientUnits="userSpaceOnUse" x1="511.1929" y1="403.1409" x2="567.4546" y2="470.191">
		<stop  offset="0" style="stop-color:#B0CF34"/>
		<stop  offset="1" style="stop-color:#62C2E8"/>
	</linearGradient>
	<path fill="url(#SVGID_8_)" d="M581.9,420.3h-85.2c-9,0-16.4,7.3-16.4,16.4s7.3,16.4,16.4,16.4h85.2c9,0,16.4-7.3,16.4-16.4
		S591,420.3,581.9,420.3z"/>
	<linearGradient id="SVGID_9_" gradientUnits="userSpaceOnUse" x1="454.0546" y1="246.6042" x2="479.8896" y2="277.3932">
		<stop  offset="0" style="stop-color:#B0CF34"/>
		<stop  offset="1" style="stop-color:#62C2E8"/>
	</linearGradient>
	<path fill="url(#SVGID_9_)" d="M436.9,308.5c4.2,0,8.4-1.6,11.6-4.8l60.2-60.2c6.4-6.4,6.4-16.8,0-23.2c-6.4-6.4-16.8-6.4-23.2,0
		l-60.2,60.2c-6.4,6.4-6.4,16.8,0,23.2C428.5,306.9,432.7,308.5,436.9,308.5z"/>
	<linearGradient id="SVGID_10_" gradientUnits="userSpaceOnUse" x1="104.7142" y1="595.9428" x2="130.5491" y2="626.7316">
		<stop  offset="0" style="stop-color:#B0CF34"/>
		<stop  offset="1" style="stop-color:#62C2E8"/>
	</linearGradient>
	<path fill="url(#SVGID_10_)" d="M136.2,569.6l-60.2,60.2c-6.4,6.4-6.4,16.8,0,23.2c3.2,3.2,7.4,4.8,11.6,4.8
		c4.2,0,8.4-1.6,11.6-4.8l60.2-60.2c6.4-6.4,6.4-16.8,0-23.2C152.9,563.2,142.6,563.2,136.2,569.6z"/>
</g>
</svg>
