<?xml version="1.0" encoding="utf-8"?>
<!-- Generator: Adobe Illustrator 18.1.1, SVG Export Plug-In . SVG Version: 6.00 Build 0)  -->
<svg version="1.1" id="Capa_1" xmlns="http://www.w3.org/2000/svg" xmlns:xlink="http://www.w3.org/1999/xlink" x="0px" y="0px"
	 viewBox="-212.9 -71.2 1000 1000" enable-background="new -212.9 -71.2 1000 1000" xml:space="preserve">
<linearGradient id="SVGID_1_" gradientUnits="userSpaceOnUse" x1="-10.1289" y1="63.3574" x2="603.2216" y2="794.3201">
	<stop  offset="0" style="stop-color:#B0CF34"/>
	<stop  offset="1" style="stop-color:#62C2E8"/>
</linearGradient>
<circle fill="none" stroke="url(#SVGID_1_)" stroke-width="36" stroke-miterlimit="10" cx="296.5" cy="428.8" r="459.1"/>
<g>
	
		<linearGradient id="SVGID_2_" gradientUnits="userSpaceOnUse" x1="174.1452" y1="487.6676" x2="363.0937" y2="262.4876" gradientTransform="matrix(1 0 0 -1 0 792)">
		<stop  offset="0" style="stop-color:#B0CF34"/>
		<stop  offset="1" style="stop-color:#62C2E8"/>
	</linearGradient>
	<path fill="url(#SVGID_2_)" d="M454.1,404.9L247.2,269.4c-5.1-3.3-10.7-5.1-16.2-5.1c-14.6,0-25.6,12-25.6,27.7v273.6
		c0,15.7,11,27.7,25.6,27.7c5.5,0,11.2-1.7,16.2-5.1l207-135.5c8.6-5.6,13.6-14.4,13.6-23.9C467.7,419.3,462.7,410.6,454.1,404.9z
		 M243.1,544.1V313.6L421,428.8L243.1,544.1z"/>
</g>
</svg>
