<?xml version="1.0" encoding="utf-8"?>
<!-- Generator: Adobe Illustrator 18.1.1, SVG Export Plug-In . SVG Version: 6.00 Build 0)  -->
<svg version="1.1" id="Capa_1" xmlns="http://www.w3.org/2000/svg" xmlns:xlink="http://www.w3.org/1999/xlink" x="0px" y="0px"
	 viewBox="-212.9 -71.2 1000 1000" enable-background="new -212.9 -71.2 1000 1000" xml:space="preserve">
<linearGradient id="SVGID_1_" gradientUnits="userSpaceOnUse" x1="-10.1289" y1="63.3574" x2="603.2216" y2="794.3201">
	<stop  offset="0" style="stop-color:#B0CF34"/>
	<stop  offset="1" style="stop-color:#62C2E8"/>
</linearGradient>
<circle fill="none" stroke="url(#SVGID_1_)" stroke-width="36" stroke-miterlimit="10" cx="296.5" cy="428.8" r="459.1"/>
<linearGradient id="SVGID_2_" gradientUnits="userSpaceOnUse" x1="137.5997" y1="294.8479" x2="461.3155" y2="680.6374">
	<stop  offset="0" style="stop-color:#B0CF34"/>
	<stop  offset="1" style="stop-color:#62C2E8"/>
</linearGradient>
<path fill="url(#SVGID_2_)" d="M492.4,378.9c-7.8,0-15.4,0.7-23,2.2c-3.4-92.5-79.8-166.8-173.2-166.8c-85.9,0-158.5,63.5-171.3,147
	C55.8,363.1,0,419.9,0,489.5c0,70.7,57.5,128.2,128.2,128.2h107.3c8.1,0,14.7-6.6,14.7-14.7c0-8.1-6.6-14.7-14.7-14.7H128.2
	c-54.5,0-98.8-44.3-98.8-98.8s44.3-98.8,98.8-98.8c2.7,0,5.5,0.1,8.7,0.4l14.9,1.3l1-14.9c5.2-75,68.2-133.8,143.5-133.8
	c79.4,0,143.9,64.6,143.9,143.9c0,3.6-0.2,7.5-0.5,11.9l-1.9,23.4l21.9-8.5c10.5-4.1,21.5-6.2,32.8-6.2c49.7,0,90.2,40.5,90.2,90.2
	c0,49.7-40.5,90.2-90.2,90.2c-1.3,0-40.3-0.1-79.2-0.2c-38.6-0.1-77-0.2-78.3-0.2c-9.1,0-13.9-4.4-14.2-13.1V416.8l15.9,18.9
	c5.2,6.2,14.5,7,20.7,1.8c6.2-5.2,7-14.5,1.8-20.7l-35.3-41.9c-4.4-5.3-10.8-8.3-17.5-8.3c-6.7,0-13.1,3-17.5,8.3l-35.3,41.9
	c-5.2,6.2-4.4,15.5,1.8,20.7c2.8,2.3,6.1,3.5,9.4,3.5c4.2,0,8.3-1.8,11.2-5.2l15.5-18.4v158.1c0,17,11.6,42.3,43.6,42.3
	c1.3,0,39.7,0.1,78.2,0.2c38.9,0.1,78,0.2,79.3,0.2c65.9,0,119.6-53.6,119.6-119.6C612,432.5,558.4,378.9,492.4,378.9z"/>
</svg>
