<?xml version="1.0" encoding="utf-8"?>
<!-- Generator: Adobe Illustrator 18.1.1, SVG Export Plug-In . SVG Version: 6.00 Build 0)  -->
<svg version="1.1" id="Capa_1" xmlns="http://www.w3.org/2000/svg" xmlns:xlink="http://www.w3.org/1999/xlink" x="0px" y="0px"
	 viewBox="-212.9 -71.2 1000 1000" enable-background="new -212.9 -71.2 1000 1000" xml:space="preserve">
<linearGradient id="SVGID_1_" gradientUnits="userSpaceOnUse" x1="-18.6143" y1="69.4518" x2="594.7363" y2="800.4146">
	<stop  offset="0" style="stop-color:#B0CF34"/>
	<stop  offset="1" style="stop-color:#62C2E8"/>
</linearGradient>
<circle fill="none" stroke="url(#SVGID_1_)" stroke-width="36" stroke-miterlimit="10" cx="288.1" cy="434.9" r="459.1"/>
<g>
	<linearGradient id="SVGID_2_" gradientUnits="userSpaceOnUse" x1="181.2969" y1="301.6901" x2="416.9874" y2="582.5751">
		<stop  offset="0" style="stop-color:#B0CF34"/>
		<stop  offset="1" style="stop-color:#62C2E8"/>
	</linearGradient>
	<path fill="url(#SVGID_2_)" d="M295.4,254.5c-87.8,0-159.3,71.4-159.3,159.3c0,36,11.8,70,34.1,98.2c4.3,5.4,8.9,10.8,13.3,15.9
		c13.3,15.4,25.8,30,30.3,46.4c0.1,0.4,0.9,3.8,0.8,15.5l0,1.7c-0.1,9.5-0.3,22.5,9.3,32.3c6.6,6.7,15.8,9.9,28.2,9.9h86.1
		c13.4,0,23-3.3,29.5-10c8.7-9.1,8.1-20.9,7.7-28.7c-0.1-1.4-0.1-2.8-0.2-4.2c-0.1-11.7,0.7-15,0.8-15.2
		c4.5-16.4,19.2-33.6,32.2-48.9c4.3-5.1,8.4-9.9,12.2-14.7c22.3-28.3,34.1-62.3,34.1-98.3C454.6,326,383.2,254.5,295.4,254.5z
		 M395.3,492.2c-3.4,4.4-7.3,8.9-11.5,13.8c-15.1,17.8-32.3,37.9-38.7,61.1c-0.9,3.3-2.1,9.4-1.9,24.1c0,1.8,0.1,3.6,0.2,5.4
		c0.1,1.4,0.2,3.3,0.2,4.7c-1.1,0.2-2.8,0.4-5.3,0.4h-86.1c-2.7,0-4.3-0.3-5.1-0.5c-0.4-2.1-0.4-6.4-0.3-9.2l0-1.8
		c0.2-14.8-1-20.9-1.9-24.3c-6.4-23.4-22.6-42.2-36.9-58.9c-4.4-5.1-8.6-10-12.4-14.8c-17.8-22.6-27.2-49.7-27.2-78.4
		c0-70.1,57-127.2,127.2-127.2c70.1,0,127.2,57,127.2,127.2C422.5,442.5,413.1,469.6,395.3,492.2z"/>
	<linearGradient id="SVGID_3_" gradientUnits="userSpaceOnUse" x1="253.2015" y1="640.877" x2="337.4865" y2="741.3239">
		<stop  offset="0" style="stop-color:#B0CF34"/>
		<stop  offset="1" style="stop-color:#62C2E8"/>
	</linearGradient>
	<path fill="url(#SVGID_3_)" d="M335,648.2h-79.2c-17.1,0-31,13.9-31,31V703c0,17.1,13.9,31,31,31H335c17.1,0,31-13.9,31-31v-23.8
		C366,662.1,352.1,648.2,335,648.2z M333.9,701.9h-77.1v-21.6h77.1V701.9z"/>
	<linearGradient id="SVGID_4_" gradientUnits="userSpaceOnUse" x1="268.8261" y1="153.2185" x2="321.8601" y2="216.4219">
		<stop  offset="0" style="stop-color:#B0CF34"/>
		<stop  offset="1" style="stop-color:#62C2E8"/>
	</linearGradient>
	<path fill="url(#SVGID_4_)" d="M295.3,233.8c8.9,0,16-7.2,16-16v-65.8c0-8.9-7.2-16-16-16s-16,7.2-16,16v65.8
		C279.3,226.6,286.5,233.8,295.3,233.8z"/>
	<linearGradient id="SVGID_5_" gradientUnits="userSpaceOnUse" x1="458.7201" y1="230.2362" x2="482.1042" y2="258.1042">
		<stop  offset="0" style="stop-color:#B0CF34"/>
		<stop  offset="1" style="stop-color:#62C2E8"/>
	</linearGradient>
	<path fill="url(#SVGID_5_)" d="M506.4,209.9c-6.1-6.4-16.3-6.6-22.7-0.5L435,255.8c-6.4,6.1-6.6,16.3-0.5,22.7
		c3.2,3.3,7.4,5,11.6,5c4,0,8-1.5,11.1-4.4l48.7-46.5C512.2,226.4,512.5,216.3,506.4,209.9z"/>
	<linearGradient id="SVGID_6_" gradientUnits="userSpaceOnUse" x1="499.597" y1="358.6567" x2="546.0685" y2="414.0392">
		<stop  offset="0" style="stop-color:#B0CF34"/>
		<stop  offset="1" style="stop-color:#62C2E8"/>
	</linearGradient>
	<path fill="url(#SVGID_6_)" d="M554.2,370.3C554.2,370.3,554.2,370.3,554.2,370.3l-62.7,0.1c-8.9,0-16,7.2-16,16.1
		c0,8.9,7.2,16,16,16c0,0,0,0,0,0l62.7-0.1c8.9,0,16-7.2,16-16.1C570.2,377.4,563,370.3,554.2,370.3z"/>
	<linearGradient id="SVGID_7_" gradientUnits="userSpaceOnUse" x1="80.3156" y1="201.9802" x2="143.9406" y2="277.8056">
		<stop  offset="0" style="stop-color:#B0CF34"/>
		<stop  offset="1" style="stop-color:#62C2E8"/>
	</linearGradient>
	<path fill="url(#SVGID_7_)" d="M148.1,274.2c6.1-6.4,5.9-16.6-0.5-22.7l-48.7-46.5c-6.4-6.1-16.6-5.9-22.7,0.5
		c-6.1,6.4-5.9,16.6,0.5,22.7l48.7,46.5c3.1,3,7.1,4.4,11.1,4.4C140.7,279.2,144.9,277.5,148.1,274.2z"/>
	<linearGradient id="SVGID_8_" gradientUnits="userSpaceOnUse" x1="30.0049" y1="358.5988" x2="76.5731" y2="414.0966">
		<stop  offset="0" style="stop-color:#B0CF34"/>
		<stop  offset="1" style="stop-color:#62C2E8"/>
	</linearGradient>
	<path fill="url(#SVGID_8_)" d="M84.7,370.4L22,370.3c0,0,0,0,0,0c-8.8,0-16,7.2-16,16c0,8.9,7.2,16.1,16,16.1l62.7,0.1c0,0,0,0,0,0
		c8.8,0,16-7.2,16-16C100.7,377.6,93.5,370.4,84.7,370.4z"/>
</g>
</svg>
