<?xml version="1.0" encoding="utf-8"?>
<!-- Generator: Adobe Illustrator 18.1.1, SVG Export Plug-In . SVG Version: 6.00 Build 0)  -->
<svg version="1.1" id="Capa_1" xmlns="http://www.w3.org/2000/svg" xmlns:xlink="http://www.w3.org/1999/xlink" x="0px" y="0px"
	 viewBox="-212.9 -71.2 1000 1000" enable-background="new -212.9 -71.2 1000 1000" xml:space="preserve">
<linearGradient id="SVGID_1_" gradientUnits="userSpaceOnUse" x1="-18.6143" y1="69.4518" x2="594.7363" y2="800.4146">
	<stop  offset="0" style="stop-color:#B0CF34"/>
	<stop  offset="1" style="stop-color:#62C2E8"/>
</linearGradient>
<circle fill="none" stroke="url(#SVGID_1_)" stroke-width="36" stroke-miterlimit="10" cx="288.1" cy="434.9" r="459.1"/>
<g>
	<linearGradient id="SVGID_2_" gradientUnits="userSpaceOnUse" x1="223.8101" y1="283.5045" x2="277.5079" y2="347.4991">
		<stop  offset="0" style="stop-color:#B0CF34"/>
		<stop  offset="1" style="stop-color:#62C2E8"/>
	</linearGradient>
	<path fill="url(#SVGID_2_)" d="M250.7,273.7c-23,0-41.8,18.7-41.8,41.8s18.7,41.8,41.8,41.8c23,0,41.8-18.7,41.8-41.8
		C292.4,292.5,273.7,273.7,250.7,273.7z M250.7,338.7c-12.8,0-23.2-10.4-23.2-23.2c0-12.8,10.4-23.2,23.2-23.2
		c12.8,0,23.2,10.4,23.2,23.2C273.9,328.3,263.5,338.7,250.7,338.7z"/>
	<linearGradient id="SVGID_3_" gradientUnits="userSpaceOnUse" x1="223.8101" y1="512.1766" x2="277.5079" y2="576.1713">
		<stop  offset="0" style="stop-color:#B0CF34"/>
		<stop  offset="1" style="stop-color:#62C2E8"/>
	</linearGradient>
	<path fill="url(#SVGID_3_)" d="M250.7,502.4c-23,0-41.8,18.7-41.8,41.8c0,23,18.7,41.8,41.8,41.8c23,0,41.8-18.7,41.8-41.8
		C292.4,521.1,273.7,502.4,250.7,502.4z M250.7,567.4c-12.8,0-23.2-10.4-23.2-23.2c0-12.8,10.4-23.2,23.2-23.2
		c12.8,0,23.2,10.4,23.2,23.2C273.9,557,263.5,567.4,250.7,567.4z"/>
	<linearGradient id="SVGID_4_" gradientUnits="userSpaceOnUse" x1="332.3552" y1="339.5658" x2="386.1041" y2="403.6212">
		<stop  offset="0" style="stop-color:#B0CF34"/>
		<stop  offset="1" style="stop-color:#62C2E8"/>
	</linearGradient>
	<path fill="url(#SVGID_4_)" d="M343.3,333c-10.3,4.3-18.4,12.3-22.7,22.6c-4.3,10.3-4.3,21.7-0.1,32c6.5,15.7,21.6,25.9,38.7,25.9
		c5.5,0,10.8-1.1,15.9-3.2c10.3-4.3,18.4-12.3,22.7-22.6c4.3-10.3,4.3-21.7,0.1-32c-6.5-15.7-21.6-25.9-38.7-25.9
		C353.8,329.8,348.4,330.9,343.3,333z M380.7,362.7c2.4,5.7,2.3,12,0,17.8c-2.4,5.7-6.9,10.2-12.6,12.5c-2.8,1.2-5.8,1.8-8.8,1.8
		c-9.4,0-17.9-5.6-21.5-14.4c-2.4-5.7-2.3-12,0-17.8c2.4-5.7,6.9-10.2,12.6-12.5c2.8-1.2,5.8-1.8,8.8-1.8
		C368.7,348.4,377.1,354,380.7,362.7z"/>
	<linearGradient id="SVGID_5_" gradientUnits="userSpaceOnUse" x1="115.2157" y1="456.0567" x2="168.9654" y2="520.1132">
		<stop  offset="0" style="stop-color:#B0CF34"/>
		<stop  offset="1" style="stop-color:#62C2E8"/>
	</linearGradient>
	<path fill="url(#SVGID_5_)" d="M142.1,446.3c-5.5,0-10.8,1.1-15.9,3.2c-10.3,4.2-18.4,12.3-22.7,22.6c-4.3,10.3-4.3,21.7-0.1,32
		c6.5,15.7,21.6,25.9,38.7,25.9c5.5,0,10.8-1.1,15.9-3.2c10.3-4.3,18.4-12.3,22.7-22.6c4.3-10.3,4.3-21.7,0.1-32
		C174.3,456.4,159.1,446.3,142.1,446.3z M163.5,497c-2.4,5.7-6.9,10.2-12.6,12.5c-2.8,1.2-5.8,1.8-8.8,1.8
		c-9.4,0-17.9-5.6-21.5-14.4c-2.4-5.7-2.3-12,0-17.8c2.4-5.7,6.9-10.2,12.6-12.5c2.8-1.2,5.8-1.8,8.8-1.8c9.4,0,17.9,5.6,21.5,14.4
		C165.9,485,165.9,491.3,163.5,497z"/>
	<linearGradient id="SVGID_6_" gradientUnits="userSpaceOnUse" x1="332.1846" y1="456.4794" x2="385.9343" y2="520.5357">
		<stop  offset="0" style="stop-color:#B0CF34"/>
		<stop  offset="1" style="stop-color:#62C2E8"/>
	</linearGradient>
	<path fill="url(#SVGID_6_)" d="M375.1,449.9c-5.1-2.1-10.5-3.2-16.1-3.2c-16.9,0-32.1,10.1-38.6,25.7c-8.9,21.3,1.2,45.8,22.5,54.6
		c5.1,2.1,10.5,3.2,16.1,3.2c16.9,0,32.1-10.1,38.6-25.7c4.3-10.3,4.3-21.7,0.1-32C393.4,462.3,385.4,454.2,375.1,449.9z
		 M380.5,497.4c-3.6,8.7-12,14.3-21.4,14.3c-3.1,0-6.1-0.6-8.9-1.8c-11.8-4.9-17.4-18.5-12.5-30.4c3.6-8.7,12-14.3,21.4-14.3
		c3.1,0,6.1,0.6,8.9,1.8C379.8,472,385.4,485.6,380.5,497.4z"/>
	<linearGradient id="SVGID_7_" gradientUnits="userSpaceOnUse" x1="115.393" y1="339.1318" x2="169.1437" y2="403.1895">
		<stop  offset="0" style="stop-color:#B0CF34"/>
		<stop  offset="1" style="stop-color:#62C2E8"/>
	</linearGradient>
	<path fill="url(#SVGID_7_)" d="M158.3,332.6c-5.1-2.1-10.5-3.2-16.1-3.2c-16.9,0-32.1,10.1-38.6,25.7c-8.9,21.3,1.2,45.8,22.5,54.6
		c5.1,2.1,10.5,3.2,16.1,3.2c16.9,0,32.1-10.1,38.6-25.7C189.7,366,179.6,341.4,158.3,332.6z M163.7,380.1
		c-3.6,8.7-12,14.3-21.4,14.3c-3.1,0-6.1-0.6-8.9-1.8c-11.8-4.9-17.4-18.5-12.5-30.4c3.6-8.7,12-14.3,21.4-14.3
		c3.1,0,6.1,0.6,8.9,1.8C163,354.7,168.6,368.3,163.7,380.1z"/>
	<linearGradient id="SVGID_8_" gradientUnits="userSpaceOnUse" x1="121.6743" y1="247.6572" x2="514.7277" y2="716.08">
		<stop  offset="0" style="stop-color:#B0CF34"/>
		<stop  offset="1" style="stop-color:#62C2E8"/>
	</linearGradient>
	<path fill="url(#SVGID_8_)" d="M666.2,529.7c-7.7,0-13.9,6.2-13.9,13.9c0,24.5-19.9,44.4-44.4,44.4c-24.5,0-44.4-19.9-44.4-44.4
		c0-39.8-32.4-72.3-72.3-72.3c-7.8,0-15.4,1.3-22.6,3.7c3-14.6,4.6-29.7,4.6-45.2c0-122.7-99.8-222.6-222.6-222.6
		S28.1,307.1,28.1,429.8c0,122.7,99.8,222.6,222.6,222.6c91.5,0,170.3-55.5,204.4-134.6c8.2-11.3,21.6-18.6,36.1-18.6
		c24.5,0,44.4,19.9,44.4,44.4c0,39.8,32.4,72.3,72.3,72.3s72.3-32.4,72.3-72.3C680.1,536,673.9,529.7,666.2,529.7z M430.5,504.4
		c-3.4,5.3-6.2,11.1-8.2,17.2c-32.9,61.2-97.5,102.9-171.7,102.9C143.3,624.5,56,537.2,56,429.8c0-107.4,87.3-194.7,194.7-194.7
		c107.4,0,194.7,87.3,194.7,194.7C445.4,456.2,440.1,481.4,430.5,504.4z"/>
</g>
</svg>
