<?xml version="1.0" encoding="utf-8"?>
<!-- Generator: Adobe Illustrator 18.1.1, SVG Export Plug-In . SVG Version: 6.00 Build 0)  -->
<svg version="1.1" id="Capa_1" xmlns="http://www.w3.org/2000/svg" xmlns:xlink="http://www.w3.org/1999/xlink" x="0px" y="0px"
	 viewBox="-212.9 -71.2 1000 1000" enable-background="new -212.9 -71.2 1000 1000" xml:space="preserve">
<g>
	<linearGradient id="SVGID_1_" gradientUnits="userSpaceOnUse" x1="166.3212" y1="373.9495" x2="421.2231" y2="677.7297">
		<stop  offset="0" style="stop-color:#B0CF34"/>
		<stop  offset="1" style="stop-color:#62C2E8"/>
	</linearGradient>
	<path fill="url(#SVGID_1_)" d="M454.2,417.7c-8.8,0-16,7.1-16,16c0,36.8-17.1,73.1-46.9,99.5c-27.9,24.7-64.6,38.8-100.7,38.8h-7
		c-36.1,0-72.8-14.2-100.7-38.8c-29.8-26.4-46.9-62.6-46.9-99.5c0-8.8-7.1-16-16-16s-16,7.1-16,16c0,46,21,90.9,57.7,123.4
		c30.5,26.9,69.7,43.4,109.4,46.3v74.5H197c-8.8,0-16,7.1-16,16s7.1,16,16,16h180.2c8.8,0,16-7.1,16-16c0-8.8-7.1-16-16-16h-74.1
		v-74.5c39.6-2.9,78.9-19.4,109.4-46.3c36.7-32.4,57.7-77.4,57.7-123.4C470.1,424.8,463,417.7,454.2,417.7z"/>
	<linearGradient id="SVGID_2_" gradientUnits="userSpaceOnUse" x1="170.4167" y1="205.6329" x2="403.7675" y2="483.7295">
		<stop  offset="0" style="stop-color:#B0CF34"/>
		<stop  offset="1" style="stop-color:#62C2E8"/>
	</linearGradient>
	<path fill="url(#SVGID_2_)" d="M283.7,541.5h6.8c63.9,0,119.9-51.9,119.9-111V258.8c0-59.1-56.1-111-119.9-111h-6.8
		c-63.9,0-119.9,51.9-119.9,111v171.7C163.8,489.6,219.8,541.5,283.7,541.5z M195.7,258.8c0-41.4,42-79,88-79h6.8
		c46.1,0,88,37.7,88,79v171.7c0,41.4-42,79-88,79h-6.8c-46.1,0-88-37.7-88-79L195.7,258.8L195.7,258.8z"/>
</g>
<linearGradient id="SVGID_3_" gradientUnits="userSpaceOnUse" x1="-19.5839" y1="63.3574" x2="593.7666" y2="794.3201">
	<stop  offset="0" style="stop-color:#B0CF34"/>
	<stop  offset="1" style="stop-color:#62C2E8"/>
</linearGradient>
<circle fill="none" stroke="url(#SVGID_3_)" stroke-width="36" stroke-miterlimit="10" cx="287.1" cy="428.8" r="459.1"/>
</svg>
